<?xml version="1.0" encoding="utf-8"?>
<!-- Generator: Adobe Illustrator 25.0.1, SVG Export Plug-In . SVG Version: 6.00 Build 0)  -->
<svg version="1.1" id="Layer_1" xmlns="http://www.w3.org/2000/svg" xmlns:xlink="http://www.w3.org/1999/xlink" x="0px" y="0px"
	 viewBox="0 0 100 125" style="enable-background:new 0 0 100 125;" xml:space="preserve">
<path d="M1.6,93.6v-0.3v2.1c0,0.6,0.3,1.3,1,1.9l17.5,15.5c1.8,1.6,5.6,2.1,8.6,1.1l40.7-15.1c1.8-0.6,2.8-1.8,2.8-3V94
	c0,1.2-1,2.3-2.8,3L28.6,112c-2.8,1.1-6.7,0.6-8.6-1.1L2.6,95.5C1.9,95,1.6,94.3,1.6,93.6 M1.6,89.7v-1v2.9v0.5c0,0.6,0.3,1.3,1,1.9
	l17.5,15.5c1.8,1.6,5.6,2.1,8.6,1.1l40.7-15.1c1.8-0.6,2.8-1.8,2.8-2.9v1.3v-3.7c0,1.2-1,2.2-2.8,3L28.6,108
	c-2.8,1.1-6.7,0.6-8.6-1.1L2.6,91.5C1.9,90.9,1.6,90.3,1.6,89.7 M1.6,85.6V84v3.3l0,0v0.7c0,0.6,0.3,1.3,1,1.9l17.5,15.5
	c1.8,1.6,5.6,2.1,8.6,1.1l40.7-15.1c1.8-0.6,2.8-1.8,2.8-2.9v0.5v-3c0,1.2-1,2.2-2.8,2.9l-40.8,15c-2.8,1.1-6.7,0.6-8.6-1.1
	L2.6,87.4C1.9,86.9,1.6,86.3,1.6,85.6 M1.6,81.6v-2.2v3.9l0,0V84c0,0.6,0.3,1.3,1,1.9l17.5,15.5c1.8,1.6,5.6,2.1,8.6,1.1l40.7-15.1
	c1.8-0.6,2.8-1.8,2.8-2.9v-2.4c0,1.2-1,2.2-2.8,2.9l-40.8,15c-2.8,1.1-6.7,0.6-8.6-1.1L2.6,83.4C1.9,82.9,1.6,82.2,1.6,81.6
	 M19.9,95L2.5,79.6c-0.3-0.3-0.6-0.6-0.9-1v0.6l0,0V80c0,0.6,0.3,1.3,1,1.9l17.5,15.5c1.8,1.6,5.6,2.1,8.6,1.1l40.7-15.1
	c1.8-0.6,2.7-1.8,2.8-2.9v-1.6c-0.7,1-1.7,1.8-3,2.3l-40.8,15c-1,0.3-2,0.5-3.1,0.5C23.2,96.8,21.2,96.1,19.9,95 M94.5,63.4
	c0,1.6-1.6,2.7-2.9,2L86.4,63c-0.3-0.1-0.6-0.2-1-0.2c-0.1,0-7.4-0.2-15.5-1c-1.2-0.1-2.1-1.4-1.8-2.7l2.4-11.7
	c0.2-0.7-0.1-1.6-0.7-2.1l-0.2-0.2c-1-1-2.3-2-3.7-2c-0.8,0-1.5,0.3-2.1,0.8c-3.4,3.2-5.6,3.8-6.9,3.8c-0.5,0-0.9-0.1-1.2-0.3
	l7.5-10.1c0.3-0.3,0.6-0.6,1-0.7l5.2-1.7c0.4-0.1,0.7-0.1,1.1,0l13.8,3.8c0.1,0,0.2,0.1,0.3,0.1l8.7,4.1c0.7,0.3,1.2,1.2,1.2,2V63.4
	z M69.9,23.8l-1.4,5.1c-0.2,0.7-0.7,1.3-1.4,1.5l-6.1,1.9c-0.4,0.1-0.8,0.4-1,0.7L50,46.5c-0.5,0.6-0.6,1.6-0.2,2.3l0.1,0.2
	c0.7,1.6,3,4.1,6.9,4.1c1.3,0,2.7-0.3,4.1-1c1.5-0.6,3.1,0.7,2.8,2.5l-3,15.1c-0.1,0.6-0.3,1-1.1,1c-0.1,0-0.3,0-0.3,0l-29.3-6.6
	c-0.4-0.1-1.1-0.2-0.9-1.4l9.4-46.1c0.1-0.6,0.3-1,1.1-1c0.1,0,0.3,0,0.3,0l29.3,6.6C69.4,22.5,70.1,22.6,69.9,23.8 M99.5,71.1V43.5
	c0-1.9-1-3.6-2.7-4.5l-10.3-5c-0.3-0.1-0.5-0.2-0.8-0.3L75.4,31c-1.1-0.3-1.8-1.6-1.5-2.8l0.9-3.1l0.1-0.2c0.1-0.3,0.5-2.8-0.8-5
	c-0.6-1-1.7-2.2-3.9-2.7l-29.3-6.6c-0.1,0-0.6-0.1-1.3-0.1c-3,0-5.3,1.9-6.1,5.1l-9.4,46.1c0,0.2-0.4,2.2,0.4,4.1L5.2,73
	c-1.4,0.5-2.3,1.4-2.5,2.5c-0.2,0.8,0.2,1.8,1,2.4l17.5,15.5c0.9,0.8,2.5,1.3,4,1.3c0.9,0,1.7-0.1,2.5-0.4l40.7-15.1
	c1.4-0.5,2.3-1.4,2.5-2.5c0.2-0.8-0.2-1.8-1-2.4l-4.3-3.8l0.3-1.7c0.2-1.1,1.2-1.8,2.2-1.7c7.1,0.7,13.6,1,16,1.1
	c0.3,0,0.5,0.1,0.8,0.2l10.8,5.2c0.3,0.2,0.7,0.2,1,0.2c0.5,0,0.9-0.1,1.3-0.4C99.1,72.8,99.5,71.9,99.5,71.1"/>
</svg>
