<?xml version="1.0" encoding="utf-8"?>
<!-- Generator: Adobe Illustrator 25.0.1, SVG Export Plug-In . SVG Version: 6.00 Build 0)  -->
<svg version="1.1" id="Layer_1" xmlns="http://www.w3.org/2000/svg" xmlns:xlink="http://www.w3.org/1999/xlink" x="0px" y="0px"
	 viewBox="0 0 100 125" style="enable-background:new 0 0 100 125;" xml:space="preserve">
<g>
	<path d="M87.8,104.8v0.3c0,0.1,0,0.2,0,0.3c0-0.1,0-0.2,0-0.3C87.8,105,87.8,104.9,87.8,104.8z"/>
	<path d="M81.8,110.3v0.4c0,0.1,0,0.2,0,0.3c0-0.1-0.1-0.2-0.1-0.3C81.7,110.5,81.7,110.4,81.8,110.3z"/>
	<path d="M89,7.5H23.1c-3.7,0-6.7,2.5-7.3,5.7c-3.1,0.5-5.6,2.7-6.1,5.6c-3.5,0.5-6.3,3.3-6.3,6.7v85.2c0,3.7,3.3,6.8,7.4,6.8H77
		c3.7,0,6.8-2.5,7.3-5.7c3.1-0.5,5.5-2.7,6-5.6c3.5-0.5,6.2-3.3,6.2-6.7V14.3C96.5,10.6,93.1,7.5,89,7.5z M81.8,110.7
		c0,0.1,0,0.2,0,0.3c-0.1,2.3-2.2,4.1-4.7,4.1H10.9c-2.6,0-4.8-2-4.8-4.4V25.5c0-2.4,2.1-4.4,4.8-4.4H77c2.6,0,4.8,2,4.8,4.4V110.7z
		 M84.4,109.2V25.5c0-3.7-3.3-6.8-7.4-6.8H12.5c0.6-1.8,2.4-3.2,4.6-3.2h65.9c2.6,0,4.9,2,4.9,4.4v85.2c0,0.1,0,0.2,0,0.3
		C87.7,107.2,86.3,108.7,84.4,109.2z M93.9,99.5c0,1.9-1.5,3.6-3.5,4.2V19.9c0-3.7-3.3-6.8-7.5-6.8H18.5c0.6-1.8,2.4-3.2,4.6-3.2H89
		c2.6,0,4.9,2,4.9,4.4V99.5z"/>
	<g>
		<g>
			<g>
				<path d="M70.6,24.6H14.9c-2.8,0-5,2.4-5,5.2v76.4c0,2.7,2.1,4.8,5,4.8h55.7c2.8,0,4.9-2.1,4.9-4.8V29.8
					C75.5,27,73.4,24.6,70.6,24.6z M49.5,76.8c-0.9,0-1.8-0.2-2.6-0.5c-0.7-0.3-0.7-0.2,0,0.1l2.1,2.1c0.3,0.3,0.5,0.6,0.5,1
					c0,0.8-0.7,1.4-1.5,1.4c0,0,0,0,0,0h-7.8c-0.6,0-1.1-0.3-1.4-0.8c-0.2-0.5-0.1-1.1,0.2-1.5l2.2-2.2c0.6-0.2,0.6-0.4,0-0.1l0,0
					c0,0,0,0,0,0c-0.8,0.3-1.7,0.5-2.6,0.5c-3.5,0-6.4-2.6-6.4-5.8c0-3.1,2.6-5.5,5.8-5.8c-0.2-0.6-0.3-1.2-0.3-1.9
					c0-3.2,2.8-5.8,6.3-5.8c3.5,0,6.4,2.7,6.4,5.9c0,0.6-0.1,1.3-0.3,1.8c0,0,0-0.1,0-0.1c3,0.3,5.7,2.8,5.7,5.8
					C55.8,74.2,53,76.8,49.5,76.8z"/>
			</g>
		</g>
	</g>
</g>
</svg>
